<?xml version="1.0" encoding="utf-8"?>
<!-- Generator: Adobe Illustrator 22.0.0, SVG Export Plug-In . SVG Version: 6.00 Build 0)  -->
<svg version="1.1"
     id="logo-svg"
     xmlns="http://www.w3.org/2000/svg"
     xmlns:xlink="http://www.w3.org/1999/xlink"
     x="0px" y="0px"
     viewBox="0 8.5 275 108.5"
     width='200'
     preserveAspectRatio="xMinYMin meet"
     xml:space="preserve">
<style type="text/css">
	.st0{fill:#BBFFBB;}
</style>
<g id="Trapezoid">
	<polygon class="st0" points="179.6,72.7 17.5,72.7 0,-6.2 200,-6.2 	"/>
</g>
<g>
	<path d="M76,10h9v2.5h-0.9L84,11l-0.2-0.2h-2.4v9l0.3,0.2l1.1,0.1v0.7h-4.2v-0.7l1.1-0.1l0.3-0.2v-9h-2.4L77.1,11l-0.2,1.5H76V10z"
		/>
	<path d="M87.6,9h0.6v4.9c0.6-0.3,1.1-0.6,1.5-0.7c0.4-0.1,0.7-0.2,1-0.2c0.7,0,1.2,0.2,1.6,0.6c0.4,0.4,0.6,1,0.6,1.8v4.5l0.3,0.3
		l0.8,0.1v0.6h-3.5v-0.6l0.8-0.1l0.3-0.3v-4.2c0-0.6-0.1-1-0.4-1.3s-0.7-0.4-1.2-0.4c-0.3,0-0.5,0-0.8,0.1s-0.6,0.2-1,0.4v5.4
		l0.3,0.3l0.8,0.1v0.6h-3.5v-0.6l0.9-0.1l0.3-0.3V10h-1.2V9.5L87.6,9z"/>
	<path d="M101.5,19v0.9c-0.5,0.3-1,0.5-1.5,0.7c-0.5,0.2-1,0.2-1.5,0.2c-1.1,0-1.9-0.4-2.6-1.1s-1-1.7-1-2.8c0-1.2,0.3-2.2,1-2.9
		c0.7-0.8,1.6-1.1,2.7-1.1c0.9,0,1.6,0.3,2.1,0.8c0.5,0.6,0.8,1.3,0.8,2.3c0,0.1,0,0.2,0,0.3c0,0.1,0,0.1,0,0.2h-5.2v0.2
		c0,1,0.2,1.8,0.7,2.4c0.5,0.6,1.1,0.9,2,0.9c0.4,0,0.8-0.1,1.2-0.2C100.6,19.6,101.1,19.3,101.5,19z M100.1,15.8v-0.2
		c0-0.6-0.1-1.1-0.4-1.5c-0.3-0.3-0.7-0.5-1.2-0.5c-0.5,0-1,0.2-1.4,0.6c-0.4,0.4-0.6,1-0.7,1.6H100.1z"/>
</g>
<g>
	<path d="M43.4,38.5v-1.1l1.6-0.1l0.5-0.4V21.4L45,21l-1.8-0.2v-1.1h6.4c2.8,0,4.8,0.4,6,1.3c1.2,0.9,1.8,2.3,1.8,4.4
		c0,1.8-0.7,3.3-2,4.4c-1.3,1.1-3.1,1.6-5.3,1.6c-0.2,0-0.5,0-0.8,0c-0.3,0-0.7-0.1-1.3-0.1l0,5.5l0.5,0.4l2,0.1v1.1H43.4z M48,30
		c0.5,0.1,0.9,0.1,1.2,0.1c0.3,0,0.5,0,0.7,0c1.6,0,2.8-0.4,3.6-1.2c0.8-0.8,1.3-2,1.3-3.5c0-1.5-0.4-2.6-1.3-3.3s-2.2-1.1-4-1.1
		c-0.4,0-0.7,0-0.9,0c-0.2,0-0.4,0-0.6,0V30z"/>
	<path d="M64.2,24.8c1.9,0,3.5,0.7,4.7,2c1.2,1.3,1.8,3,1.8,5s-0.6,3.7-1.8,5c-1.2,1.3-2.8,2-4.7,2c-1.9,0-3.5-0.7-4.7-2
		c-1.2-1.3-1.8-3-1.8-5c0-2.1,0.6-3.7,1.8-5C60.7,25.4,62.3,24.8,64.2,24.8z M64.2,26c-1.2,0-2.1,0.5-2.8,1.6
		c-0.7,1.1-1.1,2.5-1.1,4.2c0,1.8,0.4,3.2,1.1,4.2s1.6,1.6,2.8,1.6c1.2,0,2.1-0.5,2.8-1.6c0.7-1,1.1-2.5,1.1-4.2
		c0-1.8-0.4-3.2-1.1-4.2C66.3,26.5,65.4,26,64.2,26z"/>
	<path d="M81.4,25.4v3.2H80l-0.2-2c-0.4-0.2-0.7-0.4-1.1-0.5c-0.3-0.1-0.7-0.2-1-0.2c-0.7,0-1.3,0.2-1.7,0.5s-0.6,0.9-0.6,1.5
		c0,0.5,0.2,1,0.5,1.3c0.3,0.4,1,0.8,1.9,1.2c0.1,0.1,0.4,0.2,0.7,0.3c1.1,0.5,1.8,0.9,2.3,1.3c0.3,0.3,0.6,0.6,0.8,1
		c0.2,0.4,0.3,0.9,0.3,1.4c0,1.3-0.5,2.3-1.4,3.1c-0.9,0.7-2.2,1.1-3.8,1.1c-0.7,0-1.3,0-1.9-0.1s-1.2-0.2-1.7-0.4v-3.6h1.3l0.3,2.4
		c0.4,0.2,0.8,0.4,1.2,0.5s0.8,0.2,1.2,0.2c0.8,0,1.4-0.2,1.9-0.6c0.5-0.4,0.7-1,0.7-1.6c0-0.6-0.2-1-0.5-1.4s-1.1-0.8-2.4-1.4
		c-1.4-0.6-2.4-1.2-2.9-1.8c-0.5-0.6-0.8-1.2-0.8-2.1c0-1.2,0.4-2.2,1.3-2.9c0.9-0.7,2.1-1,3.7-1c0.6,0,1.2,0.1,1.8,0.2
		C80.4,25.1,80.9,25.2,81.4,25.4z"/>
	<path d="M85.4,26.8h-1.8v-0.9l1.8-0.8l1.2-2.6h1v3H92v1.3h-4.3v7.4c0,1.2,0.2,2,0.5,2.4c0.3,0.4,0.9,0.6,1.8,0.6
		c0.3,0,0.6,0,0.9-0.1c0.3,0,0.7-0.1,1-0.2v1c-0.6,0.2-1.3,0.4-1.9,0.5c-0.6,0.1-1.2,0.2-1.8,0.2c-1.1,0-1.8-0.2-2.3-0.6
		c-0.4-0.4-0.6-1.1-0.6-2.2V26.8z"/>
	<path d="M104.9,35.6v1.5c-0.8,0.5-1.7,1-2.6,1.2s-1.8,0.4-2.7,0.4c-1.9,0-3.4-0.6-4.5-1.9s-1.7-2.9-1.7-5c0-2.1,0.6-3.8,1.8-5.1
		c1.2-1.3,2.8-2,4.7-2c1.6,0,2.8,0.5,3.7,1.5c0.9,1,1.4,2.3,1.4,4c0,0.2,0,0.4,0,0.5c0,0.1,0,0.2,0,0.3h-9.1v0.3
		c0,1.8,0.4,3.2,1.3,4.2s2,1.5,3.4,1.5c0.7,0,1.4-0.1,2.1-0.4C103.3,36.5,104.1,36.1,104.9,35.6z M102.4,30v-0.4
		c0-1.1-0.2-2-0.7-2.6s-1.2-0.9-2.2-0.9c-0.9,0-1.7,0.4-2.4,1.1c-0.7,0.7-1.1,1.7-1.1,2.8H102.4z"/>
	<path d="M106.9,38.5v-1l1.5-0.1l0.5-0.5V26.8h-2v-0.9l3.3-1h1.1v2.6c0.5-0.5,0.9-0.9,1.4-1.4s1-0.9,1.6-1.3c0.1,0,0.2,0,0.3-0.1
		c0.1,0,0.2,0,0.4,0c0.3,0,0.6,0,0.8,0.1c0.3,0.1,0.6,0.2,0.8,0.3v2.4h-0.9c-0.2-0.2-0.4-0.4-0.6-0.5c-0.2-0.1-0.5-0.2-0.8-0.2
		c-0.4,0-0.9,0.2-1.4,0.5c-0.5,0.3-1,0.9-1.6,1.6v8l0.5,0.5l2,0.1v1H106.9z"/>
</g>
<g>
	<path d="M77.5,59.8v-4.9h1.7l0.3,3.2l0.4,0.5c0.4,0.2,0.9,0.4,1.4,0.5c0.5,0.1,1.1,0.2,1.7,0.2c1.3,0,2.3-0.3,3.1-0.9
		c0.8-0.6,1.1-1.4,1.1-2.5c0-1.4-1.3-2.7-4-3.9c-0.3-0.1-0.5-0.2-0.7-0.3c-1.9-0.8-3.2-1.6-3.8-2.3c-0.6-0.7-0.9-1.6-0.9-2.8
		c0-1.6,0.6-2.9,1.8-3.9c1.2-1,2.7-1.5,4.7-1.5c0.8,0,1.6,0.1,2.4,0.2c0.8,0.1,1.6,0.3,2.4,0.6v4.3h-1.5l-0.4-2.7l-0.4-0.5
		c-0.4-0.2-0.7-0.3-1.2-0.4c-0.4-0.1-0.9-0.1-1.4-0.1c-1.2,0-2.1,0.3-2.8,0.9c-0.7,0.6-1,1.4-1,2.5c0,0.8,0.2,1.4,0.7,1.9
		c0.5,0.5,1.5,1.1,3.2,1.8c0.2,0.1,0.4,0.2,0.7,0.3c1.6,0.6,2.8,1.3,3.5,2c0.4,0.4,0.7,0.9,0.9,1.4s0.3,1.1,0.3,1.7
		c0,1.7-0.7,3-2,4.1c-1.3,1-3.1,1.6-5.3,1.6c-1,0-1.9-0.1-2.8-0.2C78.9,60.3,78.1,60,77.5,59.8z"/>
	<path d="M95.3,39.7h1.1v8.5c1.1-0.6,2-1,2.7-1.3c0.7-0.3,1.3-0.4,1.8-0.4c1.2,0,2.2,0.4,2.8,1.1c0.6,0.7,1,1.8,1,3.2v7.9l0.5,0.5
		l1.5,0.1v1h-6.1v-1l1.3-0.1l0.5-0.5v-7.4c0-1-0.2-1.8-0.7-2.2s-1.2-0.7-2.2-0.7c-0.4,0-0.9,0.1-1.4,0.2S97,49,96.4,49.3v9.4
		l0.5,0.5l1.3,0.1v1h-6.1v-1l1.5-0.1l0.5-0.5V41.6h-2.2v-0.9L95.3,39.7z"/>
	<path d="M114.7,46.6c1.9,0,3.5,0.7,4.7,2c1.2,1.3,1.8,3,1.8,5s-0.6,3.7-1.8,5c-1.2,1.3-2.8,2-4.7,2c-1.9,0-3.5-0.7-4.7-2
		c-1.2-1.3-1.8-3-1.8-5c0-2.1,0.6-3.7,1.8-5C111.2,47.2,112.8,46.6,114.7,46.6z M114.7,47.8c-1.2,0-2.1,0.5-2.8,1.6
		c-0.7,1.1-1.1,2.5-1.1,4.2c0,1.8,0.4,3.2,1.1,4.2s1.6,1.6,2.8,1.6c1.2,0,2.1-0.5,2.8-1.6c0.7-1,1.1-2.5,1.1-4.2
		c0-1.8-0.4-3.2-1.1-4.2C116.8,48.3,115.8,47.8,114.7,47.8z"/>
	<path d="M122.9,66.4v-1l1.5-0.2l0.4-0.4V48.6h-2v-0.9l3.3-1h1.1v1.5c0.8-0.6,1.5-1,2.2-1.3s1.3-0.4,2-0.4c1.6,0,2.9,0.6,3.9,1.8
		c1,1.2,1.5,2.8,1.5,4.7c0,2.2-0.6,4-1.9,5.3s-2.9,2-5,2c-0.4,0-0.7,0-1.2-0.1s-0.9-0.1-1.4-0.2l0,4.7l0.5,0.4l1.8,0.2v1H122.9z
		 M127.2,58.7c0.5,0.2,0.9,0.3,1.3,0.3c0.4,0.1,0.8,0.1,1.1,0.1c1.4,0,2.5-0.5,3.4-1.6c0.9-1,1.3-2.4,1.3-4.1c0-1.6-0.4-2.8-1.1-3.8
		s-1.7-1.4-3-1.4c-0.4,0-0.9,0.1-1.4,0.2c-0.5,0.2-1,0.4-1.6,0.7V58.7z"/>
</g>
</svg>
